<svg width="43" height="59" viewBox="0 0 43 59" fill="none" xmlns="http://www.w3.org/2000/svg">
<path d="M6.00112 45.4805C6.00112 46.3188 6.71677 47 7.59506 47H12V41H6V45.4794L6.00112 45.4805Z" fill="white"/>
<path d="M14 46.9989H36.2514C37.2162 46.9989 38 46.3167 38 45.4794V41H14V47V46.9989Z" fill="white"/>
<path d="M12 32H6V39H12V32Z" fill="white"/>
<path d="M6 25.774V31H12V24H7.59507C6.71565 24 6.00112 24.7959 6.00112 25.774H6Z" fill="white"/>
<path d="M38 32H14V39H38V32Z" fill="white"/>
<path d="M41.0244 5H39.7189V6.85387C39.7189 8.70283 38.267 10.2073 36.4832 10.2073C34.6995 10.2073 33.2488 8.70283 33.2488 6.85387V5H29.7292V6.85387C29.7292 8.70283 28.2786 10.2073 26.4948 10.2073C24.711 10.2073 23.2592 8.70283 23.2592 6.85387V5H19.7408V6.85387C19.7408 8.70283 18.289 10.2073 16.5052 10.2073C14.7214 10.2073 13.2708 8.70283 13.2708 6.85387V5H9.75116V6.85387C9.75116 8.70283 8.30053 10.2073 6.51675 10.2073C4.73297 10.2073 3.28112 8.70283 3.28112 6.85387V5H1.97556C0.886357 5 0 5.88279 0 6.96912V57.0297C0 58.116 0.886357 59 1.97556 59H41.0244C42.1136 59 43 58.116 43 57.0297V6.96912C43 5.88279 42.1136 5 41.0244 5ZM38.9887 31.8615V46.0842C38.9887 47.8572 37.5429 49.2979 35.7665 49.2979H7.23346C5.45583 49.2979 4.01135 47.856 4.01135 46.0842V25.9884C4.01135 24.2155 5.45706 22.7736 7.23346 22.7736H35.7665C37.5442 22.7736 38.9887 24.2155 38.9887 25.9884V31.8602V31.8615Z" fill="white"/>
<path d="M36.2514 24H14V31H38V25.774C38 24.7959 37.2149 24 36.2514 24Z" fill="white"/>
<path d="M6.5 8C7.32704 8 8 7.19013 8 6.19571V1.80429C8 0.808698 7.32704 0 6.5 0C5.67296 0 5 0.809873 5 1.80429V6.19453C5 7.19013 5.67296 7.99883 6.5 7.99883V8Z" fill="white"/>
<path d="M16.5 8C17.327 8 18 7.19013 18 6.19571V1.80429C18 0.808698 17.327 0 16.5 0C15.673 0 15 0.809873 15 1.80429V6.19453C15 7.19013 15.673 7.99883 16.5 7.99883V8Z" fill="white"/>
<path d="M26.5 8C27.327 8 28 7.19013 28 6.19571V1.80429C28 0.808698 27.327 0 26.5 0C25.673 0 25 0.809873 25 1.80429V6.19453C25 7.19013 25.673 7.99883 26.5 7.99883V8Z" fill="white"/>
<path d="M36.5 8C37.327 8 38 7.19013 38 6.19571V1.80429C38 0.808698 37.327 0 36.5 0C35.673 0 35 0.809873 35 1.80429V6.19453C35 7.19013 35.673 7.99883 36.5 7.99883V8Z" fill="white"/>
</svg>
